# xmcd
#
# Track frame offsets:
#	150
#	15654
#	28596
#	46082
#	64377
#	78495
#	94976
#	107448
#	118982
#	131233
#	147531
#	160038
#	177190
#	195679
#	211100
#
# Disc length: 3043 seconds
#
# Revision: 1
# Processed by: cddbd v1.5.1PL0 Copyright (c) Steve Scherf et al.
# Submitted via: EasyCDDAExtractor 7.0.9.1
#
DISCID=d20be10f
DTITLE=Ginny Peters - The Journey
DYEAR=2004
DGENRE=Country
TTITLE0=The Journey
TTITLE1=I Learn't A Thing Or Two
TTITLE2=Rocking Horse
TTITLE3=Words Mean Everthing
TTITLE4=Make Me One Promise
TTITLE5=Getting By
TTITLE6=Hobo In Silk Shirt
TTITLE7=The Peddler
TTITLE8=Lady In A 87 Pontiac
TTITLE9=I Only See You
TTITLE10=Angelina Loves To Dance
TTITLE11=In The Arms Of Memory
TTITLE12=Beyond The Reason
TTITLE13=Old Picture Book
TTITLE14=Beyond Vision
EXTD=
EXTT0=
EXTT1=
EXTT2=
EXTT3=
EXTT4=
EXTT5=
EXTT6=
EXTT7=
EXTT8=
EXTT9=
EXTT10=
EXTT11=
EXTT12=
EXTT13=
EXTT14=
PLAYORDER=
